<?xml version="1.0" encoding="UTF-8" standalone="no"?>
<svg
   xmlns:dc="http://purl.org/dc/elements/1.1/"
   xmlns:cc="http://creativecommons.org/ns#"
   xmlns:rdf="http://www.w3.org/1999/02/22-rdf-syntax-ns#"
   xmlns:svg="http://www.w3.org/2000/svg"
   xmlns="http://www.w3.org/2000/svg"
   viewBox="0 0 500.03751 100.6125"
   height="40"
   width="120"
   xml:space="preserve"
   version="1.1"
   id="svg2"><metadata
     id="metadata8"><rdf:RDF><cc:Work
         rdf:about=""><dc:format>image/svg+xml</dc:format><dc:type
           rdf:resource="http://purl.org/dc/dcmitype/StillImage" /></cc:Work></rdf:RDF></metadata><defs
     id="defs6" /><g
     transform="matrix(1.25,0,0,-1.25,0,101.6125)"
     id="g10"><g
       transform="scale(0.1,0.1)"
       id="g12"><path
         id="path14"
         style="fill:#ffffff;fill-opacity:1;fill-rule:nonzero;stroke:none"
         d="M 0.273438,653.203 C 0.402344,497.945 31.0352,339.121 90.0938,240.168 L 636.566,380.203 c 19.993,74.211 34.7,169.965 34.782,273 0.007,19.895 -0.274,39.578 0.273,61.422 0,0 -140.875,98.289 -335.808,98.289 C 140.875,812.914 0,714.625 0,714.625 0.546875,692.781 0.265625,673.098 0.273438,653.203" /><path
         id="path16"
         style="fill:#ffffff;fill-opacity:1;fill-rule:nonzero;stroke:none"
         d="M 90.0938,240.168 C 189.492,50.7695 335.813,0 335.813,0 c 0,0 214.953,74.5781 300.753,380.203 L 90.0938,240.168" /><path
         id="path18"
         style="fill:#ffffff;fill-opacity:1;fill-rule:nonzero;stroke:none"
         d="m 921.059,205.066 146.451,0 0,70.989 -146.451,-31.641 0,-39.348" /><path
         id="path20"
         style="fill:#ffffff;fill-opacity:1;fill-rule:nonzero;stroke:none"
         d="m 1067.51,382.578 140.82,234.317 -168.2,0 -29.45,-68.793 c -5.51,-12.606 -9.33,-25.684 -13.692,-38.817 l -4.351,0 -45.864,107.61 -169.3,0 143.586,-234.317 0,-82.949 c 42.632,7.59 91.961,16.445 146.451,26.211 l 0,56.738" /><path
         id="path22"
         style="fill:#ffffff;fill-opacity:1;fill-rule:nonzero;stroke:none"
         d="m 1379.55,328.574 c -12.71,0 -24.17,2.742 -34.37,7.442 l -164.6,-35.567 c 38.9,-65.156 113.46,-101.992 198.97,-101.992 119.99,0 218.27,72.371 226.91,193.965 l -166.68,-35.984 c -13.66,-17.368 -34.63,-27.864 -60.23,-27.864" /><path
         id="path24"
         style="fill:#ffffff;fill-opacity:1;fill-rule:nonzero;stroke:none"
         d="m 1302.6,407.688 c 0,43.707 29.45,80.277 76.95,80.277 47.54,0 77.05,-36.57 77.05,-80.277 0,-4.098 -0.51,-7.965 -1,-11.848 49.8,9.019 100.37,18.14 151.06,27.301 -6.84,121.847 -106.42,200.3 -227.11,200.3 -125,0 -227.67,-84.086 -227.67,-213.546 0,-24.211 3.48,-46.582 9.84,-67.102 47.52,8.594 97.59,17.598 149.44,26.973 -5.33,11.015 -8.56,23.691 -8.56,37.922" /><path
         id="path26"
         style="fill:#ffffff;fill-opacity:1;fill-rule:nonzero;stroke:none"
         d="m 1774.46,504.387 11.42,0 c 25.65,0 48.12,-3.817 48.12,-35.52 0,-1.687 -0.36,-3.078 -0.47,-4.582 49.9,9.012 98.76,17.899 146.04,26.442 -8.2,91.097 -83.13,126.168 -170.71,126.168 l -180.82,0 0,-189.856 c 49.09,8.891 98.05,17.766 146.42,26.516 l 0,50.832" /><path
         id="path28"
         style="fill:#ffffff;fill-opacity:1;fill-rule:nonzero;stroke:none"
         d="m 1925.71,338.926 c -8.18,12.012 -17.51,18.554 -25.06,24.543 l 0,3.308 c 55.45,18.496 79.55,44.629 79.71,106.371 l -352.32,-76.039 0,-192.019 146.42,0 0,132.156 2.73,0 65.54,-132.156 169.74,0 0,4.265 -86.76,129.571" /><path
         id="path30"
         style="fill:#ffffff;fill-opacity:1;fill-rule:nonzero;stroke:none"
         d="m 2158.32,616.895 -145.85,0 0,-120.184 c 50.52,9.156 98.89,17.937 144.12,26.164 l 1.73,94.02" /><path
         id="path32"
         style="fill:#ffffff;fill-opacity:1;fill-rule:nonzero;stroke:none"
         d="m 2414.52,616.895 -163.41,0 -46.52,-85.297 c 68.51,12.433 128.33,23.25 175.53,31.847 l 34.4,53.45" /><path
         id="path34"
         style="fill:#ffffff;fill-opacity:1;fill-rule:nonzero;stroke:none"
         d="m 2377.21,558.844 -178.77,-38.606 -19.4,-35.472 c -8.21,-14.832 -17.38,-29.547 -20.72,-46.477 l -3.26,0 1.33,72.887 -143.92,-31.047 0,-270.774 2.85,-4.265 -2.85,0 0,-0.024 145.85,0 -3.26,172.59 3.26,0 c 3.34,-16.914 16.37,-32.168 25.06,-48.047 l 71,-124.543 173.73,0 -142.54,211.442 91.64,142.336" /><path
         id="path36"
         style="fill:#ffffff;fill-opacity:1;fill-rule:nonzero;stroke:none"
         d="m 2012.47,209.355 0,-4.265 2.85,0 -2.85,4.265" /><path
         id="path38"
         style="fill:#ffffff;fill-opacity:1;fill-rule:nonzero;stroke:none"
         d="m 2616.05,228.242 c -91.34,0 -159.94,59.375 -159.94,150.723 0,88.726 65.13,149.027 160.8,149.027 42.88,0 82.16,-10.937 116.26,-32.351 l -15.31,-52.852 -3.92,0.899 c -14.01,50.66 -43.23,74.687 -91.81,74.687 -72.07,0 -119.71,-51.594 -119.71,-143.336 0,-83.437 50.22,-137.226 119.32,-137.226 51.52,0 88.26,30.605 98.74,84.824 l 3.96,0.422 17.05,-55.52 c -37.18,-27.07 -76.91,-39.297 -125.44,-39.297" /><path
         id="path40"
         style="fill:#ffffff;fill-opacity:1;fill-rule:nonzero;stroke:none"
         d="m 2889.63,240.469 c 52.87,0 83.48,38.867 83.48,111.394 0,71.239 -31.46,111.004 -83.9,111.004 -51.13,0 -83.89,-38.879 -83.89,-110.543 0,-72.109 31.91,-111.855 84.31,-111.855 z m 0,229.39 c 73.85,0 124.09,-48.496 124.09,-119.285 0,-69.929 -48.46,-119.297 -125.39,-119.297 -72.97,0 -123.67,48.938 -123.67,121.489 0,68.156 50.7,117.093 124.97,117.093" /><path
         id="path42"
         style="fill:#ffffff;fill-opacity:1;fill-rule:nonzero;stroke:none"
         d="m 3027.35,238.73 c 27.54,8.262 28.81,34.051 28.81,90.43 0,4.793 0,10.039 0,15.293 l 0,119.293 c 0,9.637 0,17.918 0,25.371 0,33.637 -1.71,45.403 -24.46,46.309 l 0,3.48 c 19.63,2.215 39.34,7.84 59.87,16.157 -1.31,-20.543 -1.79,-45.879 -1.79,-77.329 l 0,-133.281 c 0,-2.187 0,-6.543 0,-13.113 0,-59.414 0.91,-83.899 28.9,-92.61 l 0,-3.535 c -14.89,0.868 -30.61,1.731 -46.76,1.731 -10.51,0 -25.8,-0.403 -44.57,-1.731 l 0,3.535" /><path
         id="path44"
         style="fill:#ffffff;fill-opacity:1;fill-rule:nonzero;stroke:none"
         d="m 3147.49,238.73 c 27.57,8.262 28.86,34.051 28.86,90.43 0,4.793 0,10.039 0,15.293 l 0,119.293 c 0,9.637 0,17.918 0,25.371 0,33.637 -1.72,45.403 -24.45,46.309 l 0,3.48 c 19.69,2.215 39.33,7.84 59.85,16.157 -1.3,-20.543 -1.76,-45.879 -1.76,-77.329 l 0,-133.281 c 0,-2.187 0,-6.543 0,-13.113 0,-59.414 0.88,-83.899 28.85,-92.61 l 0,-3.535 c -14.85,0.868 -30.58,1.731 -46.77,1.731 -10.44,0 -25.74,-0.403 -44.58,-1.731 l 0,3.535" /><path
         id="path46"
         style="fill:#ffffff;fill-opacity:1;fill-rule:nonzero;stroke:none"
         d="m 3439.87,389.023 c -1.72,45.454 -28.83,72.989 -67.28,72.989 -39.37,0 -67.32,-25.797 -76.9,-72.989 l 144.18,0 z m 47.16,-67.304 c -17.47,-60.293 -55.9,-91.321 -114.02,-91.321 -69.94,0 -120.15,49.817 -120.15,120.61 0,69.914 48.93,118.851 119.29,118.851 62.02,0 104,-34.062 110.55,-90.027 l -188.36,0 c -0.85,-12.234 -0.85,-20.937 -0.85,-27.066 0,-67.746 35.81,-109.68 90.02,-109.68 46.76,0 80.35,29.695 97,87.371 l 6.52,-8.738" /><path
         id="path48"
         style="fill:#ffffff;fill-opacity:1;fill-rule:nonzero;stroke:none"
         d="m 3554.22,389.023 c 0,-43.671 27.52,-71.21 74.71,-71.21 41.49,0 67.75,27.07 67.75,76.035 0,41.507 -26.26,68.593 -70.4,68.593 -41.06,0 -72.06,-27.964 -72.06,-73.418 z m -13.37,-181.32 c 0,-28.855 31.07,-48.562 88.26,-48.562 62.52,0 98.78,20.617 98.78,50.703 0,28.886 -36.71,45.488 -105.74,45.488 -52.87,0 -81.3,-19.269 -81.3,-47.629 z m 197.77,246.422 -2.64,0 c -6.11,13.117 -20.97,21.402 -34.04,21.402 -10.53,0 -19.28,-4.332 -28.42,-13.515 40.2,-15.758 59.88,-38.91 59.88,-72.11 0,-44.121 -34.1,-73.855 -100.56,-79.082 -31.43,-2.636 -54.18,-0.422 -54.18,-14.882 0,-12.657 19.67,-13.106 63.36,-17.02 73.91,-6.555 110.58,-20.969 110.58,-57.258 0,-39.355 -46.34,-71.23 -135.48,-71.23 -66.41,0 -114.91,24.05 -114.91,58.554 0,27.942 26.23,44.563 79.53,52.871 -28.38,2.618 -42.4,9.629 -42.4,23.165 0,14.863 17.51,24.929 52.44,30.578 -48.06,9.207 -73.8,37.168 -73.8,73.855 0,44.567 44.97,80.863 107.03,80.863 12.24,0 25.32,-2.175 40.17,-5.25 22.32,24.465 47.7,36.707 69.94,36.707 4.35,0 10.96,-0.441 18.34,-1.289 l -14.84,-46.359" /><path
         id="path50"
         style="fill:#ffffff;fill-opacity:1;fill-rule:nonzero;stroke:none"
         d="m 3953.04,389.023 c -1.76,45.454 -28.83,72.989 -67.29,72.989 -39.32,0 -67.31,-25.797 -76.92,-72.989 l 144.21,0 z m 47.22,-67.304 c -17.49,-60.293 -55.94,-91.321 -114.08,-91.321 -69.93,0 -120.2,49.817 -120.2,120.61 0,69.914 48.99,118.851 119.36,118.851 62.05,0 103.96,-34.062 110.52,-90.027 l -188.32,0 c -0.92,-12.234 -0.92,-20.937 -0.92,-27.066 0,-67.746 35.84,-109.68 90.02,-109.68 46.76,0 80.45,29.695 97.01,87.371 l 6.61,-8.738" /><path
         id="path52"
         style="fill:#e22b2e;fill-opacity:1;fill-rule:nonzero;stroke:none"
         d="M 9.90234,646.098 C 10.0234,495.934 37.2266,379.844 75.8008,290.605 l 551.7222,99.434 c 19.336,71.777 31.36,156.402 31.442,256.059 0.012,19.238 -0.266,38.281 0.265,59.406 0,0 -136.257,95.062 -324.796,95.062 -188.539,0 -324.79728,-95.062 -324.79728,-95.062 0.52738,-21.125 0.25781,-40.168 0.26562,-59.406" /><path
         id="path54"
         style="fill:#231f20;fill-opacity:1;fill-rule:nonzero;stroke:none"
         d="M 96.7773,246.602 C 192.914,63.418 334.434,14.3242 334.434,14.3242 c 0,0 207.906,72.1211 290.886,367.7268 L 96.7773,246.602" /><path
         id="path56"
         style="fill:#ffffff;fill-opacity:1;fill-rule:nonzero;stroke:none"
         d="m 181.953,584.285 c -2.64,-1.945 -26.07,-21.176 -26.367,-28.988 -0.016,-0.535 45.57,12.777 45.57,12.777 0,0 -16.562,18.125 -19.203,16.211" /><path
         id="path58"
         style="fill:#ffffff;fill-opacity:1;fill-rule:nonzero;stroke:none"
         d="m 198.176,539.609 c 5.762,1.653 3.738,16.973 3.738,16.973 l -46.672,-3.894 c 0,0 37.141,-14.743 42.934,-13.079" /><path
         id="path60"
         style="fill:#ffffff;fill-opacity:1;fill-rule:nonzero;stroke:none"
         d="m 226.094,581.078 c 0.234,5.477 -4,10.11 -9.457,10.352 -5.461,0.246 -10.11,-3.969 -10.348,-9.442 -0.234,-5.472 3.992,-10.09 9.457,-10.351 5.461,-0.227 10.098,3.984 10.348,9.441" /><path
         id="path62"
         style="fill:#ffffff;fill-opacity:1;fill-rule:nonzero;stroke:none"
         d="m 288.375,328.926 56.484,52.07 c 3.317,0.508 5.461,0.899 5.961,0.84 2.52,-0.383 40.278,-14.805 41.774,-15.867 0.312,-0.227 3.441,-6.731 8.183,-16.789 L 288.375,328.926 Z m 9.59,53.008 c 6.504,-1.512 12.898,-2.286 18.89,-2.559 l -48.781,-54.109 -39.222,-7.075 69.113,63.743 z m 329.558,8.105 -191.656,-34.531 c -9.871,13.379 -16.625,22.922 -16.633,24.258 -0.019,5.136 -13.546,28.211 -13.546,28.211 0,0 -6.926,11.332 0.613,2.554 7.547,-8.789 19.23,-16.39 19.23,-16.39 l 6,-2.637 c 3.055,28.207 -55.746,99.062 -65.601,110.328 -10.762,12.324 -44.696,34.481 -49.344,40.078 -1.758,2.129 -10.106,10.985 -19.043,20.477 -0.02,0.109 -0.082,0.23 -0.242,0.422 -8.438,10.16 -24.567,32.851 -24.352,32.906 10.785,2.754 18.352,38.355 15.035,35.762 -9.105,-7.106 -15.742,-8.883 -15.742,-8.883 0,0 -14.269,-6.035 -1.808,2.633 15.425,10.734 13.234,38.41 13.234,38.41 0,0 -70.773,-38.379 -76.035,-41.992 -5.262,-3.579 -23.934,-17.684 -22.422,-31.356 l 1.066,-1.844 c 0.434,0.387 0.848,0.77 1.282,1.145 17.644,14.723 39.449,17.672 48.695,6.578 8.891,-10.672 2.894,-30.426 -13.285,-45.012 3.246,-5.613 5.617,-13.09 6.406,-21.461 1.742,-18.527 -4.848,-34.304 -14.723,-35.23 -7.418,-0.699 -14.554,7.121 -18.406,18.898 l -0.125,-0.3 c -2.914,-59.34 40.484,-95.157 73.934,-118.922 2.566,-1.817 5.215,-3.36 7.894,-4.786 L 210.891,314.949 75.8008,290.605 c 6.6797,-15.46 13.6953,-30.117 20.9765,-44.003 l 314.3167,80.546 c 19.758,-42.324 48.496,-104.355 50.605,-106.32 0.086,-0.066 0.192,-0.105 0.278,-0.164 4.988,-7.559 13.32,-12.715 23.023,-13.152 16.16,-0.735 29.844,11.758 30.586,27.937 0.172,4.219 -0.582,8.262 -2.055,11.973 -0.285,0.73 -0.679,1.601 -1.301,2.715 -0.582,1.093 -1.171,2.109 -1.855,3.105 -9.871,16.035 -38.262,53.66 -60.762,83.77 l 175.707,45.039 c 0.75,2.637 1.481,5.312 2.203,7.988" /></g></g></svg>